<svg width="49" height="49" viewBox="0 0 49 49" fill="none" xmlns="http://www.w3.org/2000/svg">
<path d="M7.55541 43.2961L3.78516 1.00696H45.2152L41.4412 43.2897L24.475 47.9933L7.55541 43.2961Z" fill="#1572B6"/>
<path d="M24.5 44.3982L38.2096 40.5972L41.435 4.46448H24.5V44.3982Z" fill="#33A9DC"/>
<path d="M24.5 19.7858H31.3633L31.8373 14.4747H24.5V9.28809H37.5057L37.3812 10.6797L36.1062 24.9725H24.5V19.7858Z" fill="white"/>
<path d="M24.5304 33.2559L24.5075 33.2627L18.7314 31.703L18.362 27.5664H13.1562L13.8826 35.7103L24.5067 38.6589L24.5304 38.6522V33.2559Z" fill="#EBEBEB"/>
<path d="M30.9232 24.7532L30.2984 31.6989L24.5137 33.2604V38.6567L35.1464 35.7099L35.2244 34.8335L36.1267 24.7532H30.9232Z" fill="white"/>
<path d="M24.5176 9.28809V14.4747H11.9896L11.8858 13.3092L11.6495 10.6797L11.5254 9.28809H24.5176ZM24.5 19.7866V24.9732H18.7966L18.6928 23.8077L18.4561 21.1782L18.3324 19.7866H24.5Z" fill="#EBEBEB"/>
</svg>
