<svg width="49" height="49" viewBox="0 0 49 49" fill="none" xmlns="http://www.w3.org/2000/svg">
<path d="M9.35292 41.3015L5.98242 3.5H43.0174L39.6424 41.2955L24.4774 45.5L9.35292 41.3015Z" fill="#E44F26"/>
<path d="M24.5 42.2871L36.755 38.8896L39.638 6.59155H24.5V42.2871Z" fill="#F1662A"/>
<path d="M24.5 20.6104H18.365L17.942 15.8629H24.5V11.2264H12.875L12.986 12.4714L14.1245 25.2469H24.5V20.6104ZM24.5 32.6509L24.479 32.6569L19.316 31.2634L18.986 27.5659H14.3315L14.981 34.8439L24.479 37.4809L24.5 37.4749V32.6509Z" fill="#EBEBEB"/>
<path d="M24.4844 20.6104V25.2469H30.1934L29.6564 31.2604L24.4844 32.6554V37.4794L33.9899 34.8439L34.0589 34.0609L35.1479 21.8554L35.2619 20.6104H24.4844ZM24.4844 11.2264V15.8629H35.6834L35.7764 14.8219L35.9879 12.4714L36.0989 11.2264H24.4844Z" fill="white"/>
</svg>
