<svg width="60" height="60" viewBox="0 0 60 60" fill="none" xmlns="http://www.w3.org/2000/svg">
<path d="M3.75 3.75H56.25V56.25H3.75V3.75Z" fill="#F5DE19"/>
<path d="M39.0166 44.7654C39.4647 45.6735 40.1598 46.4367 41.0222 46.9674C41.8845 47.4981 42.8791 47.7747 43.8916 47.7654C45.9354 47.7654 47.2423 46.7435 47.2423 45.3279C47.2423 43.6404 45.8998 43.0367 43.6498 42.0523L42.416 41.5235C38.8535 40.0067 36.491 38.1073 36.491 34.091C36.491 30.3917 39.3035 27.5735 43.7154 27.5735C45.1436 27.4707 46.5704 27.7904 47.8181 28.4929C49.0657 29.1955 50.079 30.2497 50.7316 31.5242L46.8748 33.9898C46.6233 33.3579 46.1859 32.8173 45.6203 32.4397C45.0548 32.062 44.3879 31.865 43.7079 31.8748C43.4112 31.8451 43.1116 31.8775 42.8281 31.97C42.5446 32.0625 42.2835 32.213 42.0614 32.412C41.8394 32.611 41.6612 32.854 41.5382 33.1257C41.4152 33.3973 41.3502 33.6916 41.3473 33.9898C41.3473 35.4692 42.2641 36.0692 44.381 36.9898L45.6148 37.5185C49.8073 39.3167 52.1773 41.1485 52.1773 45.2679C52.1773 49.7098 48.6879 52.1435 44.0023 52.1435C42.1768 52.2587 40.3569 51.8437 38.7618 50.9485C37.1667 50.0533 35.8644 48.7161 35.0116 47.0979L39.0166 44.7654ZM21.5885 45.1929C22.3629 46.5673 23.0679 47.7298 24.7629 47.7298C26.3829 47.7298 27.4066 47.096 27.4066 44.6304V27.8548H32.3398V44.696C32.3398 49.8035 29.3398 52.1285 24.9729 52.1285C23.4293 52.2129 21.8963 51.8282 20.5754 51.0251C19.2545 50.2219 18.2076 49.0378 17.5723 47.6285L21.5885 45.1929Z" fill="black"/>
</svg>
