<svg width="43" height="49" viewBox="0 0 43 49" fill="none" xmlns="http://www.w3.org/2000/svg">
<g clip-path="url(#clip0_79_1171)">
<path d="M21.4998 48.411C20.8395 48.411 20.2233 48.235 19.6512 47.9269L13.797 44.4496C12.9167 43.9655 13.3569 43.7894 13.6209 43.7014C14.8093 43.3052 15.0294 43.2172 16.2618 42.5128C16.394 42.4248 16.57 42.4688 16.7019 42.5568L21.1917 45.2419C21.3677 45.3299 21.5878 45.3299 21.7198 45.2419L39.2822 35.0743C39.4582 34.9863 39.5463 34.8102 39.5463 34.5902V14.2988C39.5463 14.0787 39.4582 13.9027 39.2822 13.8146L21.7198 3.69096C21.5438 3.60293 21.3237 3.60293 21.1917 3.69096L3.6293 13.8148C3.45324 13.9028 3.36522 14.1229 3.36522 14.299V34.5902C3.36522 34.7662 3.45324 34.9863 3.6293 35.0743L8.42714 37.8472C11.0241 39.1676 12.6525 37.6271 12.6525 36.0866V16.0593C12.6525 15.7953 12.8727 15.5312 13.1808 15.5312H15.4257C15.6898 15.5312 15.9538 15.7512 15.9538 16.0593V36.0865C15.9538 39.5637 14.0611 41.5884 10.7599 41.5884C9.74756 41.5884 8.95531 41.5884 6.7106 40.488L2.08882 37.8472C0.944456 37.1868 0.240234 35.9544 0.240234 34.634V14.343C0.240234 13.0226 0.944456 11.7902 2.08882 11.1298L19.6512 0.962267C20.7515 0.346074 22.248 0.346074 23.3483 0.962267L40.9107 11.1298C42.055 11.79 42.7593 13.0224 42.7593 14.343V34.6342C42.7593 35.9546 42.055 37.187 40.9107 37.8472L23.3483 48.0151C22.7762 48.2791 22.1159 48.4112 21.4998 48.4112M26.9136 34.4581C19.2109 34.4581 17.6264 30.937 17.6264 27.9439C17.6264 27.6798 17.8464 27.4157 18.1545 27.4157H20.4433C20.7073 27.4157 20.9276 27.5918 20.9276 27.8559C21.2797 30.1886 22.292 31.3331 26.9576 31.3331C30.655 31.3331 32.2396 30.4969 32.2396 28.5163C32.2396 27.3717 31.7995 26.5355 26.0333 25.9631C21.2357 25.479 18.2426 24.4226 18.2426 20.5934C18.2426 17.028 21.2355 14.9153 26.2534 14.9153C31.8874 14.9153 34.6604 16.8519 35.0125 21.0774C35.0125 21.2095 34.9685 21.3416 34.8805 21.4735C34.7924 21.5616 34.6604 21.6496 34.5283 21.6496H32.2396C32.0194 21.6496 31.7995 21.4735 31.7553 21.2535C31.2271 18.8327 29.8627 18.0405 26.2534 18.0405C22.2041 18.0405 21.7198 19.4489 21.7198 20.5052C21.7198 21.7818 22.292 22.1778 27.7499 22.882C33.1639 23.5862 35.7167 24.5987 35.7167 28.3841C35.6727 32.2574 32.5037 34.4581 26.9136 34.4581Z" fill="#539E43"/>
</g>
<defs>
<clipPath id="clip0_79_1171">
<rect width="42.52" height="48" fill="white" transform="translate(0.240234 0.5)"/>
</clipPath>
</defs>
</svg>
