<svg width="41" height="49" viewBox="0 0 41 49" fill="none" xmlns="http://www.w3.org/2000/svg">
<g clip-path="url(#clip0_79_1225)">
<path d="M34.8218 4.23616C32.6071 1.71186 28.6037 0.629639 23.4822 0.629639H8.61805C8.1113 0.629561 7.62115 0.810308 7.23577 1.13937C6.85039 1.46843 6.59507 1.92421 6.51575 2.42471L0.326608 41.6777C0.203588 42.4518 0.802952 43.1527 1.58748 43.1527H10.7641L13.0687 28.5348L12.9972 28.9926C13.1614 27.9593 14.0451 27.1972 15.0915 27.1972H19.4522C28.0188 27.1972 34.7266 23.7176 36.686 13.6521C36.7441 13.3544 36.7945 13.0647 36.8381 12.7816C36.5908 12.6506 36.5908 12.6506 36.8381 12.7816C37.4216 9.06127 36.8341 6.52887 34.8218 4.23616Z" fill="#27346A"/>
<path d="M16.58 11.4414C16.8308 11.3218 17.1053 11.2598 17.3831 11.2602H29.0363C30.4163 11.2602 31.7034 11.35 32.8795 11.5393C33.2086 11.5918 33.536 11.6545 33.8613 11.7272C34.3223 11.8289 34.7779 11.9534 35.2266 12.1002C35.8048 12.2933 36.3433 12.5182 36.8382 12.7816C37.4216 9.05984 36.8341 6.52887 34.8218 4.23616C32.6058 1.71186 28.6037 0.629639 23.4822 0.629639H8.61678C7.57016 0.629639 6.67977 1.3916 6.51575 2.42471L0.326609 41.6763C0.203589 42.4516 0.802953 43.1516 1.58621 43.1516H10.7641L15.5455 12.8305C15.5925 12.5325 15.7113 12.2504 15.8915 12.0084C16.0717 11.7664 16.308 11.5719 16.58 11.4414Z" fill="#27346A"/>
<path d="M36.6869 13.6523C34.7275 23.7164 28.0199 27.1973 19.4531 27.1973H15.0912C14.0447 27.1973 13.1609 27.9594 12.9983 28.9927L10.1311 47.1683C10.024 47.8457 10.5479 48.4596 11.2332 48.4596H18.9689C19.412 48.4594 19.8405 48.3012 20.1774 48.0134C20.5143 47.7255 20.7374 47.3269 20.8067 46.8892L20.882 46.4951L22.34 37.2549L22.4339 36.7442C22.5032 36.3066 22.7263 35.908 23.0631 35.6201C23.4 35.3323 23.8285 35.1741 24.2716 35.1739H25.4293C32.9229 35.1739 38.7905 32.1296 40.5051 23.3249C41.2208 19.6454 40.8505 16.5734 38.9572 14.4156C38.3829 13.7621 37.6698 13.2223 36.839 12.7817C36.794 13.0662 36.7452 13.3546 36.6869 13.6523Z" fill="#2790C3"/>
<path d="M34.787 11.964C34.4815 11.8748 34.1731 11.7958 33.8623 11.7271C33.5369 11.6556 33.2095 11.5934 32.8805 11.5405C31.7031 11.35 30.417 11.26 29.0358 11.26H17.384C17.106 11.2595 16.8314 11.322 16.5809 11.4426C16.3085 11.5726 16.0719 11.7671 15.8916 12.0091C15.7113 12.2512 15.5927 12.5336 15.5462 12.8318L13.0696 28.5348L12.998 28.9925C13.161 27.9592 14.0447 27.1971 15.0913 27.1971H19.4533C28.0198 27.1971 34.7274 23.7176 36.6868 13.6521C36.7452 13.3544 36.7941 13.0659 36.8391 12.7815C36.343 12.5198 35.8058 12.2931 35.2275 12.1014C35.0815 12.0531 34.9347 12.0072 34.7872 11.964" fill="#1F264F"/>
</g>
<defs>
<clipPath id="clip0_79_1225">
<rect width="40.69" height="48" fill="white" transform="translate(0.304688 0.5)"/>
</clipPath>
</defs>
</svg>
