<svg width="49" height="49" viewBox="0 0 49 49" fill="none" xmlns="http://www.w3.org/2000/svg">
<path d="M24.4996 28.775C26.8606 28.775 28.7746 26.861 28.7746 24.5C28.7746 22.139 26.8606 20.225 24.4996 20.225C22.1386 20.225 20.2246 22.139 20.2246 24.5C20.2246 26.861 22.1386 28.775 24.4996 28.775Z" fill="#61DAFB"/>
<path d="M40.7379 17.45C39.9129 17.15 39.0504 16.85 38.1504 16.5875C38.3754 15.6875 38.5629 14.7875 38.7129 13.925C39.5004 8.97498 38.6379 5.48748 36.2379 4.13748C35.5254 3.72498 34.7379 3.53748 33.8379 3.53748C31.2129 3.53748 27.8754 5.48748 24.5004 8.74998C21.1254 5.48748 17.7879 3.53748 15.1629 3.53748C14.2629 3.53748 13.4754 3.72498 12.7629 4.13748C10.3629 5.52498 9.50039 9.01248 10.2879 13.925C10.4379 14.7875 10.6254 15.6875 10.8504 16.5875C9.95039 16.85 9.08789 17.1125 8.26289 17.45C3.57539 19.25 1.02539 21.725 1.02539 24.5C1.02539 27.275 3.61289 29.75 8.26289 31.55C9.08789 31.85 9.95039 32.15 10.8504 32.4125C10.6254 33.3125 10.4379 34.2125 10.2879 35.075C9.50039 40.025 10.3629 43.5125 12.7629 44.8625C13.4754 45.275 14.2629 45.4625 15.1629 45.4625C17.8254 45.4625 21.1629 43.5125 24.5004 40.25C27.8754 43.5125 31.2129 45.4625 33.8379 45.4625C34.7379 45.4625 35.5254 45.275 36.2379 44.8625C38.6379 43.475 39.5004 39.9875 38.7129 35.075C38.5629 34.2125 38.3754 33.3125 38.1504 32.4125C39.0504 32.15 39.9129 31.8875 40.7379 31.55C45.4254 29.75 47.9754 27.275 47.9754 24.5C47.9754 21.725 45.4254 19.25 40.7379 17.45ZM35.1879 6.01248C36.7254 6.91248 37.2504 9.68748 36.6129 13.625C36.5004 14.4125 36.3129 15.2375 36.0879 16.1C34.1379 15.65 32.0754 15.35 29.9004 15.1625C28.6254 13.3625 27.3129 11.75 26.0004 10.2875C28.7754 7.54998 31.5879 5.67498 33.8754 5.67498C34.3629 5.67498 34.8129 5.78748 35.1879 6.01248ZM30.9879 28.25C30.3129 29.45 29.5254 30.65 28.7004 31.85C27.3129 31.9625 25.9254 32 24.5004 32C23.0379 32 21.6504 31.9625 20.3004 31.85C19.4754 30.65 18.7254 29.45 18.0504 28.25C17.3379 27.0125 16.6629 25.7375 16.0629 24.5C16.6629 23.2625 17.3379 21.9875 18.0504 20.75C18.7254 19.55 19.5129 18.35 20.3379 17.15C21.7254 17.0375 23.1129 17 24.5379 17C26.0004 17 27.3879 17.0375 28.7379 17.15C29.5629 18.35 30.3129 19.55 30.9879 20.75C31.7004 21.9875 32.3754 23.2625 32.9754 24.5C32.3379 25.7375 31.7004 26.975 30.9879 28.25ZM34.1004 27.0125C34.6629 28.325 35.1129 29.6 35.5254 30.875C34.2504 31.175 32.9004 31.4 31.4754 31.5875C31.9254 30.875 32.4129 30.125 32.8254 29.3375C33.2754 28.55 33.6879 27.7625 34.1004 27.0125ZM24.5004 37.175C23.6004 36.2 22.7379 35.15 21.9129 34.0625C22.7754 34.1 23.6379 34.1375 24.5004 34.1375C25.3629 34.1375 26.2254 34.1 27.0879 34.0625C26.2629 35.15 25.4004 36.2 24.5004 37.175ZM17.5254 31.55C16.1004 31.3625 14.7504 31.1375 13.4754 30.8375C13.8879 29.6 14.3379 28.2875 14.9004 26.975C15.3129 27.725 15.7254 28.5125 16.1754 29.2625C16.6254 30.0875 17.0754 30.8 17.5254 31.55ZM14.9004 21.9875C14.3379 20.675 13.8879 19.4 13.4754 18.125C14.7504 17.825 16.1004 17.6 17.5254 17.4125C17.0754 18.125 16.5879 18.875 16.1754 19.6625C15.7254 20.45 15.3129 21.2375 14.9004 21.9875ZM24.5004 11.825C25.4004 12.8 26.2629 13.85 27.0879 14.9375C26.2254 14.9 25.3629 14.8625 24.5004 14.8625C23.6379 14.8625 22.7754 14.9 21.9129 14.9375C22.7379 13.85 23.6004 12.8 24.5004 11.825ZM32.8254 19.7L31.4754 17.45C32.9004 17.6375 34.2504 17.8625 35.5254 18.1625C35.1129 19.4 34.6629 20.7125 34.1004 22.025C33.6879 21.2375 33.2754 20.45 32.8254 19.7ZM12.3879 13.625C11.7504 9.68748 12.2754 6.91248 13.8129 6.01248C14.1879 5.78748 14.6379 5.67498 15.1254 5.67498C17.3754 5.67498 20.1879 7.51248 23.0004 10.2875C21.6879 11.7125 20.3754 13.3625 19.1004 15.1625C16.9254 15.35 14.8629 15.6875 12.9129 16.1C12.6879 15.2375 12.5379 14.4125 12.3879 13.625ZM3.12539 24.5C3.12539 22.7375 5.26289 20.8625 9.01289 19.475C9.76289 19.175 10.5879 18.9125 11.4129 18.6875C12.0129 20.5625 12.7629 22.55 13.6629 24.5375C12.7629 26.525 11.9754 28.475 11.4129 30.35C6.23789 28.85 3.12539 26.6 3.12539 24.5ZM13.8129 42.9875C12.2754 42.0875 11.7504 39.3125 12.3879 35.375C12.5004 34.5875 12.6879 33.7625 12.9129 32.9C14.8629 33.35 16.9254 33.65 19.1004 33.8375C20.3754 35.6375 21.6879 37.25 23.0004 38.7125C20.2254 41.45 17.4129 43.325 15.1254 43.325C14.6379 43.325 14.1879 43.2125 13.8129 42.9875ZM36.6129 35.375C37.2504 39.3125 36.7254 42.0875 35.1879 42.9875C34.8129 43.2125 34.3629 43.325 33.8754 43.325C31.6254 43.325 28.8129 41.4875 26.0004 38.7125C27.3129 37.2875 28.6254 35.6375 29.9004 33.8375C32.0754 33.65 34.1379 33.3125 36.0879 32.9C36.3129 33.7625 36.4629 34.5875 36.6129 35.375ZM39.9879 29.525C39.2379 29.825 38.4129 30.0875 37.5879 30.3125C36.9879 28.4375 36.2379 26.45 35.3379 24.4625C36.2379 22.475 37.0254 20.525 37.5879 18.65C42.7629 20.15 45.8754 22.4 45.8754 24.5C45.8754 26.2625 43.7004 28.1375 39.9879 29.525Z" fill="#61DAFB"/>
</svg>
