<svg width="32" height="33" viewBox="0 0 32 33" fill="none" xmlns="http://www.w3.org/2000/svg">
<path d="M16.0003 20.0734C19.8243 20.0734 23.0275 18.7742 23.2211 17.0766L21.4211 12.0334C20.9987 13.251 18.6611 14.115 16.0003 14.115C13.3395 14.115 11.0019 13.251 10.5795 12.0334L8.78112 17.0766C8.97472 18.7742 12.1763 20.0734 16.0003 20.0734ZM16.0003 9.34543C17.7987 9.34543 19.4675 8.78863 19.9571 7.92303C19.2835 6.03183 18.7059 4.40783 18.3395 3.38543C18.0963 2.70223 16.9939 2.34863 16.0003 2.34863C15.0067 2.34863 13.9043 2.70223 13.6611 3.38543L12.0435 7.92303C12.5331 8.78863 14.2035 9.34543 16.0003 9.34543ZM30.0483 21.6542L24.0403 19.2318L24.7331 21.163C24.6979 23.2094 20.7267 24.8414 16.0003 24.8414C11.2755 24.8414 7.30112 23.211 7.26752 21.163L7.96032 19.2318L1.95232 21.6542C0.267519 22.3326 0.195519 23.5886 1.79552 24.4446L13.0947 30.5038C14.6915 31.3598 17.3075 31.3598 18.9059 30.5038L30.2067 24.4446C31.8051 23.5886 31.7331 22.3326 30.0483 21.6542Z" fill="white"/>
</svg>
