<svg width="24" height="25" viewBox="0 0 24 25" fill="none" xmlns="http://www.w3.org/2000/svg">
<path d="M12 20.7485C14.1217 20.7485 16.1566 19.9057 17.6569 18.4054C19.1571 16.9051 20 14.8703 20 12.7485C20 10.6268 19.1571 8.59197 17.6569 7.09168C16.1566 5.59139 14.1217 4.74854 12 4.74854C9.87827 4.74854 7.84344 5.59139 6.34315 7.09168C4.84285 8.59197 4 10.6268 4 12.7485C4 14.8703 4.84285 16.9051 6.34315 18.4054C7.84344 19.9057 9.87827 20.7485 12 20.7485ZM12 22.7485C6.477 22.7485 2 18.2715 2 12.7485C2 7.22554 6.477 2.74854 12 2.74854C17.523 2.74854 22 7.22554 22 12.7485C22 18.2715 17.523 22.7485 12 22.7485ZM11 16.7485H13V18.7485H11V16.7485ZM11 6.74854H13V14.7485H11V6.74854Z" fill="white"/>
</svg>
