<svg width="32" height="32" viewBox="0 0 32 32" fill="none" xmlns="http://www.w3.org/2000/svg">
<path d="M26.666 2.66064H5.33268C3.86602 2.66064 2.66602 3.86064 2.66602 5.32731V21.3273C2.66602 22.794 3.86602 23.994 5.33268 23.994H10.666V27.994C10.666 28.794 11.1993 29.3273 11.9993 29.3273H12.666C12.9327 29.3273 13.3327 29.194 13.5993 28.9273L18.5327 23.994H26.666C28.1327 23.994 29.3327 22.794 29.3327 21.3273V5.32731C29.3327 3.86064 28.1327 2.66064 26.666 2.66064ZM14.666 17.3273H9.33268V11.7273L11.066 7.99398H13.7327L11.866 11.994H14.666V17.3273ZM22.666 17.3273H17.3327V11.7273L19.066 7.99398H21.7327L19.866 11.994H22.666V17.3273Z" fill="white"/>
</svg>
