<svg width="22" height="28" viewBox="0 0 22 28" fill="none" xmlns="http://www.w3.org/2000/svg">
<g clip-path="url(#clip0_48_992)">
<path fill-rule="evenodd" clip-rule="evenodd" d="M12.155 4.17857C12.155 3.86599 12.0308 3.56622 11.8098 3.3452C11.5888 3.12417 11.289 3 10.9764 3C10.6639 3 10.3641 3.12417 10.1431 3.3452C9.92203 3.56622 9.79786 3.86599 9.79786 4.17857V6.10043C8.11263 6.35381 6.55305 7.14088 5.34815 8.34606C4.14326 9.55123 3.35656 11.111 3.10357 12.7963H1.17857C0.865995 12.7963 0.566221 12.9205 0.345196 13.1415C0.124171 13.3625 0 13.6623 0 13.9749C0 14.2874 0.124171 14.5872 0.345196 14.8082C0.566221 15.0293 0.865995 15.1534 1.17857 15.1534H3.10043C3.35381 16.8387 4.14088 18.3982 5.34606 19.6031C6.55123 20.808 8.111 21.5947 9.79629 21.8477V23.7711C9.79629 24.0837 9.92046 24.3835 10.1415 24.6045C10.3625 24.8255 10.6623 24.9497 10.9749 24.9497C11.2874 24.9497 11.5872 24.8255 11.8082 24.6045C12.0293 24.3835 12.1534 24.0837 12.1534 23.7711V21.8493C13.8387 21.5959 15.3982 20.8088 16.6031 19.6037C17.808 18.3985 18.5947 16.8387 18.8477 15.1534H20.7711C21.0837 15.1534 21.3835 15.0293 21.6045 14.8082C21.8255 14.5872 21.9497 14.2874 21.9497 13.9749C21.9497 13.6623 21.8255 13.3625 21.6045 13.1415C21.3835 12.9205 21.0837 12.7963 20.7711 12.7963H18.8493C18.596 11.1113 17.8091 9.55187 16.6043 8.347C15.3994 7.14214 13.84 6.3553 12.155 6.102V4.17857ZM16.5801 13.9654C16.5783 12.8579 16.2483 11.7758 15.6318 10.8557C15.0154 9.93565 14.1401 9.21887 13.1165 8.7959C12.093 8.37294 10.967 8.26276 9.88089 8.47929C8.79476 8.69581 7.79714 9.22932 7.01401 10.0124C6.23089 10.7956 5.69738 11.7932 5.48086 12.8793C5.26434 13.9655 5.37451 15.0914 5.79748 16.115C6.22044 17.1385 6.93722 18.0138 7.8573 18.6302C8.77738 19.2467 9.8595 19.5767 10.967 19.5786H10.9859C12.4688 19.5761 13.8903 18.9859 14.9389 17.9373C15.9875 16.8887 16.5776 15.4672 16.5801 13.9843V13.9654ZM9.04357 13.9749C9.04357 13.4622 9.24721 12.9706 9.60969 12.6081C9.97217 12.2456 10.4638 12.042 10.9764 12.042C11.4891 12.042 11.9807 12.2456 12.3432 12.6081C12.7056 12.9706 12.9093 13.4622 12.9093 13.9749C12.9093 14.4875 12.7056 14.9791 12.3432 15.3416C11.9807 15.7041 11.4891 15.9077 10.9764 15.9077C10.4638 15.9077 9.97217 15.7041 9.60969 15.3416C9.24721 14.9791 9.04357 14.4875 9.04357 13.9749Z" fill="white"/>
</g>
<defs>
<clipPath id="clip0_48_992">
<rect width="21.9497" height="27.9497" fill="white"/>
</clipPath>
</defs>
</svg>
