<svg width="24" height="25" viewBox="0 0 24 25" fill="none" xmlns="http://www.w3.org/2000/svg">
<path fill-rule="evenodd" clip-rule="evenodd" d="M12 16.4971C13.8565 16.4971 15.637 15.7596 16.9497 14.4468C18.2625 13.1341 19 11.3536 19 9.49707C19 7.64055 18.2625 5.86008 16.9497 4.54732C15.637 3.23457 13.8565 2.49707 12 2.49707C10.1435 2.49707 8.36301 3.23457 7.05025 4.54732C5.7375 5.86008 5 7.64055 5 9.49707C5 11.3536 5.7375 13.1341 7.05025 14.4468C8.36301 15.7596 10.1435 16.4971 12 16.4971ZM12 6.49707C11.716 6.49707 11.526 6.83707 11.146 7.52007L11.048 7.69607C10.94 7.89007 10.886 7.98607 10.802 8.05007C10.717 8.11407 10.612 8.13807 10.402 8.18507L10.212 8.22907C9.474 8.39607 9.105 8.47907 9.017 8.76107C8.929 9.04307 9.181 9.33807 9.684 9.92607L9.814 10.0781C9.957 10.2451 10.029 10.3281 10.061 10.4321C10.093 10.5361 10.082 10.6471 10.061 10.8701L10.041 11.0731C9.965 11.8581 9.927 12.2511 10.156 12.4251C10.386 12.5991 10.732 12.4401 11.423 12.1221L11.601 12.0401C11.798 11.9501 11.896 11.9051 12 11.9051C12.104 11.9051 12.202 11.9501 12.399 12.0401L12.577 12.1221C13.268 12.4411 13.614 12.5991 13.844 12.4251C14.074 12.2511 14.035 11.8581 13.959 11.0731L13.939 10.8701C13.918 10.6471 13.907 10.5361 13.939 10.4321C13.971 10.3281 14.043 10.2451 14.186 10.0781L14.316 9.92607C14.819 9.33807 15.071 9.04407 14.983 8.76107C14.895 8.47907 14.526 8.39607 13.788 8.22907L13.598 8.18507C13.388 8.13807 13.283 8.11507 13.198 8.05007C13.114 7.98607 13.06 7.89007 12.952 7.69607L12.854 7.52007C12.474 6.83707 12.284 6.49707 12 6.49707Z" fill="white"/>
<path d="M7.09286 16.438L6.71386 17.82C6.08586 20.112 5.77186 21.258 6.19086 21.885C6.33786 22.105 6.53486 22.281 6.76386 22.398C7.41586 22.73 8.42386 22.205 10.4389 21.155C11.1089 20.805 11.4449 20.631 11.8009 20.593C11.9332 20.5798 12.0665 20.5798 12.1989 20.593C12.5549 20.631 12.8899 20.806 13.5609 21.155C15.5759 22.205 16.5839 22.73 17.2359 22.398C17.4649 22.281 17.6619 22.105 17.8089 21.885C18.2289 21.258 17.9139 20.112 17.2859 17.82L16.9069 16.438C15.4729 17.4549 13.7578 17.9998 11.9999 17.997C10.2419 17.9998 8.52682 17.4549 7.09286 16.438Z" fill="white"/>
</svg>
