<svg width="32" height="33" viewBox="0 0 32 33" fill="none" xmlns="http://www.w3.org/2000/svg">
<path d="M8.00065 8.74862C8.00065 8.04137 8.2816 7.3631 8.7817 6.863C9.2818 6.3629 9.96007 6.08195 10.6673 6.08195C11.0209 6.08195 11.3601 5.94147 11.6101 5.69143C11.8602 5.44138 12.0007 5.10224 12.0007 4.74862C12.0007 4.39499 11.8602 4.05586 11.6101 3.80581C11.3601 3.55576 11.0209 3.41528 10.6673 3.41528C9.25283 3.41528 7.89628 3.97719 6.89608 4.97738C5.89589 5.97757 5.33398 7.33413 5.33398 8.74862V12.7486C5.33398 13.4559 5.05303 14.1341 4.55294 14.6342C4.05284 15.1343 3.37456 15.4153 2.66732 15.4153C2.3137 15.4153 1.97456 15.5558 1.72451 15.8058C1.47446 16.0559 1.33398 16.395 1.33398 16.7486C1.33398 17.1022 1.47446 17.4414 1.72451 17.6914C1.97456 17.9415 2.3137 18.0819 2.66732 18.0819C3.37456 18.0819 4.05284 18.3629 4.55294 18.863C5.05303 19.3631 5.33398 20.0414 5.33398 20.7486V24.7486C5.33398 26.1631 5.89589 27.5197 6.89608 28.5198C7.89628 29.52 9.25283 30.0819 10.6673 30.0819C11.0209 30.0819 11.3601 29.9415 11.6101 29.6914C11.8602 29.4414 12.0007 29.1022 12.0007 28.7486C12.0007 28.395 11.8602 28.0559 11.6101 27.8058C11.3601 27.5558 11.0209 27.4153 10.6673 27.4153C9.96007 27.4153 9.2818 27.1343 8.7817 26.6342C8.2816 26.1341 8.00065 25.4559 8.00065 24.7486V20.7486C7.99637 19.9893 7.83 19.2397 7.51269 18.5499C7.19537 17.8601 6.73441 17.2459 6.16065 16.7486C6.73441 16.2513 7.19537 15.6372 7.51269 14.9474C7.83 14.2575 7.99637 13.5079 8.00065 12.7486V8.74862ZM29.334 15.4153C28.6267 15.4153 27.9485 15.1343 27.4484 14.6342C26.9483 14.1341 26.6673 13.4559 26.6673 12.7486V8.74862C26.6673 7.33413 26.1054 5.97757 25.1052 4.97738C24.105 3.97719 22.7485 3.41528 21.334 3.41528C20.9804 3.41528 20.6412 3.55576 20.3912 3.80581C20.1411 4.05586 20.0007 4.39499 20.0007 4.74862C20.0007 5.10224 20.1411 5.44138 20.3912 5.69143C20.6412 5.94147 20.9804 6.08195 21.334 6.08195C22.0412 6.08195 22.7195 6.3629 23.2196 6.863C23.7197 7.3631 24.0007 8.04137 24.0007 8.74862V12.7486C24.0049 13.5079 24.1713 14.2575 24.4886 14.9474C24.8059 15.6372 25.2669 16.2513 25.8407 16.7486C25.2669 17.2459 24.8059 17.8601 24.4886 18.5499C24.1713 19.2397 24.0049 19.9893 24.0007 20.7486V24.7486C24.0007 25.4559 23.7197 26.1341 23.2196 26.6342C22.7195 27.1343 22.0412 27.4153 21.334 27.4153C20.9804 27.4153 20.6412 27.5558 20.3912 27.8058C20.1411 28.0559 20.0007 28.395 20.0007 28.7486C20.0007 29.1022 20.1411 29.4414 20.3912 29.6914C20.6412 29.9415 20.9804 30.0819 21.334 30.0819C22.7485 30.0819 24.105 29.52 25.1052 28.5198C26.1054 27.5197 26.6673 26.1631 26.6673 24.7486V20.7486C26.6673 20.0414 26.9483 19.3631 27.4484 18.863C27.9485 18.3629 28.6267 18.0819 29.334 18.0819C29.6876 18.0819 30.0267 17.9415 30.2768 17.6914C30.5268 17.4414 30.6673 17.1022 30.6673 16.7486C30.6673 16.395 30.5268 16.0559 30.2768 15.8058C30.0267 15.5558 29.6876 15.4153 29.334 15.4153Z" fill="white"/>
</svg>
