<svg width="32" height="32" viewBox="0 0 32 32" fill="none" xmlns="http://www.w3.org/2000/svg">
<path d="M7.33366 9.33329C6.80323 9.33329 6.29452 9.12258 5.91944 8.74751C5.54437 8.37243 5.33366 7.86373 5.33366 7.33329C5.33366 6.80286 5.54437 6.29415 5.91944 5.91908C6.29452 5.54401 6.80323 5.33329 7.33366 5.33329C7.86409 5.33329 8.3728 5.54401 8.74787 5.91908C9.12294 6.29415 9.33366 6.80286 9.33366 7.33329C9.33366 7.86373 9.12294 8.37243 8.74787 8.74751C8.3728 9.12258 7.86409 9.33329 7.33366 9.33329ZM28.547 15.44L16.547 3.43996C16.067 2.95996 15.4003 2.66663 14.667 2.66663H5.33366C3.85366 2.66663 2.66699 3.85329 2.66699 5.33329V14.6666C2.66699 15.4 2.96033 16.0666 3.45366 16.5466L15.4403 28.5466C15.9337 29.0266 16.6003 29.3333 17.3337 29.3333C18.067 29.3333 18.7337 29.0266 19.2137 28.5466L28.547 19.2133C29.0403 18.7333 29.3337 18.0666 29.3337 17.3333C29.3337 16.5866 29.027 15.92 28.547 15.44Z" fill="white"/>
</svg>
