<svg width="32" height="30" viewBox="0 0 32 30" fill="none" xmlns="http://www.w3.org/2000/svg">
<path d="M20.4064 11.7778C21.952 11.7778 23.2064 13.0409 23.2064 14.5972V22.2484C23.2064 24.1716 22.4477 26.0161 21.0971 27.3761C19.7465 28.736 17.9148 29.5 16.0048 29.5C14.0948 29.5 12.2631 28.736 10.9125 27.3761C9.56194 26.0161 8.8032 24.1716 8.8032 22.2484V14.5972C8.8032 13.0409 10.056 11.7778 11.6032 11.7778H20.4064ZM8.2096 11.7778C7.63146 12.475 7.28458 13.337 7.2176 14.2428L7.2016 14.5972V22.2484C7.2016 23.613 7.5088 24.9051 8.056 26.0587C7.52693 26.2037 6.97493 26.2767 6.4 26.2778C5.55941 26.2778 4.72704 26.111 3.95046 25.7871C3.17387 25.4631 2.46827 24.9883 1.87395 24.3897C1.27964 23.7911 0.808248 23.0805 0.486712 22.2984C0.165176 21.5163 -0.000209949 20.6782 2.00018e-07 19.8317V14.5972C2.64474e-05 13.8896 0.264274 13.2079 0.740288 12.6874C1.2163 12.1669 1.86928 11.8457 2.5696 11.7874L2.8 11.7778H8.2096ZM23.8 11.7778H29.2C30.7456 11.7778 32 13.0409 32 14.5972V19.8333C32.0002 20.8212 31.7749 21.7959 31.3414 22.6821C30.908 23.5684 30.278 24.3424 29.5001 24.9444C28.7222 25.5464 27.8174 25.9602 26.8554 26.154C25.8933 26.3478 24.9 26.3163 23.952 26.0619C24.432 25.0501 24.7264 23.9352 24.792 22.7559L24.8064 22.2484V14.5972C24.8064 13.5258 24.4304 12.5431 23.8 11.7778ZM16 0.5C17.273 0.5 18.4939 1.00922 19.3941 1.91565C20.2943 2.82208 20.8 4.05145 20.8 5.33333C20.8 6.61521 20.2943 7.84459 19.3941 8.75102C18.4939 9.65744 17.273 10.1667 16 10.1667C14.727 10.1667 13.5061 9.65744 12.6059 8.75102C11.7057 7.84459 11.2 6.61521 11.2 5.33333C11.2 4.05145 11.7057 2.82208 12.6059 1.91565C13.5061 1.00922 14.727 0.5 16 0.5ZM26.4 2.11111C27.4609 2.11111 28.4783 2.53547 29.2284 3.29082C29.9786 4.04618 30.4 5.07066 30.4 6.13889C30.4 7.20712 29.9786 8.2316 29.2284 8.98696C28.4783 9.74231 27.4609 10.1667 26.4 10.1667C25.3391 10.1667 24.3217 9.74231 23.5716 8.98696C22.8214 8.2316 22.4 7.20712 22.4 6.13889C22.4 5.07066 22.8214 4.04618 23.5716 3.29082C24.3217 2.53547 25.3391 2.11111 26.4 2.11111ZM5.6 2.11111C6.66087 2.11111 7.67828 2.53547 8.42843 3.29082C9.17857 4.04618 9.6 5.07066 9.6 6.13889C9.6 7.20712 9.17857 8.2316 8.42843 8.98696C7.67828 9.74231 6.66087 10.1667 5.6 10.1667C4.53913 10.1667 3.52172 9.74231 2.77157 8.98696C2.02143 8.2316 1.6 7.20712 1.6 6.13889C1.6 5.07066 2.02143 4.04618 2.77157 3.29082C3.52172 2.53547 4.53913 2.11111 5.6 2.11111Z" fill="white"/>
</svg>
